# xmcd
#
# Track frame offsets: 
#        150
#        10666
#        24047
#        34040
#        47220
#        60886
#        71542
#        81733
#        91112
#        103401
#        124487
#        135069
#        147090
#        158856
#        169528
#        179844
#        189440
#        201656
#        213050
#        224506
#        235895
#        247260
#        261505
#        273724
#        284458
#
# Disc length: 3978 seconds
#
# Revision: 0
# Processed by: cddbd v1.5.2PL0 Copyright (c) Steve Scherf et al.
# Submitted via: ExactAudioCopy v1.3
#
DISCID=7a0f8819
DTITLE=75 Orginal Recordings Featuring - The Very Best Of Country
DYEAR=2013
DGENRE=Country
TTITLE0=1. It's Sure Gonna Hurt - Dolly Parton
TTITLE1=2. My Special Angel - Bobby Helms
TTITLE2=3. Valley Of Death - Glen Campbell
TTITLE3=4. Forty Shades of Green - Johnny Cash
TTITLE4=5. She's Got You - Patsy Cline
TTITLE5=6. He'll Have To Go - Jim Reeves
TTITLE6=7. From A Jack To A King - Ned Miller
TTITLE7=8. Backtrack - Faron Young
TTITLE8=9. Under Your Spell Again - Buck Owens
TTITLE9=10. El Paso - Marty Robbins
TTITLE10=11. Lonesome Number One - Don Gibson
TTITLE11=12. Second Choice - Stonewall Jackson
TTITLE12=13. Angel On Paper (Original Nashville Recording) - Dottie We
TTITLE12=st
TTITLE13=14. Send Me The Pillow You Dream On - Johnny Tillotson
TTITLE14=15. Busted - Johnny Cash
TTITLE15=16. Unknown Girl Of My Dreams - Clint Eastwood
TTITLE16=17. Willingly - Willie Nelson and Shirley Collie
TTITLE17=18. Adios Amigo - Jim Reeves
TTITLE18=19. The Burning Of Atlanta - Claude King
TTITLE19=20. Battle Of New Orleans - Johnny Horton
TTITLE20=21. Portrait Of A Fool - Conway Twitty
TTITLE21=22. P.T. 109 - Jimmy Dean
TTITLE22=23. Twenty Cigarettes - 'Little' Jimmy Dickens
TTITLE23=24. In The Jailhouse Now - Johnny Cash
TTITLE24=25. I Don't Hurt Anymore - Hank Snow
EXTD=
EXTT0=
EXTT1=
EXTT2=
EXTT3=
EXTT4=
EXTT5=
EXTT6=
EXTT7=
EXTT8=
EXTT9=
EXTT10=
EXTT11=
EXTT12=
EXTT13=
EXTT14=
EXTT15=
EXTT16=
EXTT17=
EXTT18=
EXTT19=
EXTT20=
EXTT21=
EXTT22=
EXTT23=
EXTT24=
PLAYORDER=
